<?xml version="1.0" encoding="UTF-8" standalone="no"?>
<!-- Created with Inkscape (http://www.inkscape.org/) -->

<svg
   xmlns:dc="http://purl.org/dc/elements/1.1/"
   xmlns:cc="http://creativecommons.org/ns#"
   xmlns:rdf="http://www.w3.org/1999/02/22-rdf-syntax-ns#"
   xmlns:svg="http://www.w3.org/2000/svg"
   xmlns="http://www.w3.org/2000/svg"
   xmlns:sodipodi="http://sodipodi.sourceforge.net/DTD/sodipodi-0.dtd"
   xmlns:inkscape="http://www.inkscape.org/namespaces/inkscape"
   width="297mm"
   height="210mm"
   viewBox="0 0 1052.3622 744.09448"
   id="svg4659"
   version="1.1"
   inkscape:version="0.91 r"
   sodipodi:docname="ggcar-js.svg"
   enable-background="new">
  <defs
     id="defs4661">
    <inkscape:path-effect
       effect="spiro"
       id="path-effect4331"
       is_visible="true" />
    <inkscape:path-effect
       effect="spiro"
       id="path-effect5810"
       is_visible="true" />
    <inkscape:path-effect
       effect="spiro"
       id="path-effect5752"
       is_visible="true" />
    <inkscape:path-effect
       effect="spiro"
       id="path-effect5748"
       is_visible="true" />
    <inkscape:path-effect
       effect="spiro"
       id="path-effect5705"
       is_visible="true" />
    <inkscape:path-effect
       effect="spiro"
       id="path-effect5700"
       is_visible="true" />
    <inkscape:path-effect
       effect="spiro"
       id="path-effect5605"
       is_visible="true" />
    <inkscape:path-effect
       effect="spiro"
       id="path-effect5575"
       is_visible="true" />
    <inkscape:path-effect
       effect="spiro"
       id="path-effect5570"
       is_visible="true" />
    <inkscape:path-effect
       effect="spiro"
       id="path-effect5565"
       is_visible="true" />
    <inkscape:path-effect
       effect="spiro"
       id="path-effect5560"
       is_visible="true" />
    <inkscape:path-effect
       effect="spiro"
       id="path-effect5555"
       is_visible="true" />
    <inkscape:path-effect
       effect="spiro"
       id="path-effect5550"
       is_visible="true" />
    <inkscape:path-effect
       effect="spiro"
       id="path-effect5545"
       is_visible="true" />
    <inkscape:path-effect
       effect="spiro"
       id="path-effect5523"
       is_visible="true" />
    <inkscape:path-effect
       effect="spiro"
       id="path-effect5518"
       is_visible="true" />
    <inkscape:path-effect
       effect="spiro"
       id="path-effect5514"
       is_visible="true" />
    <inkscape:path-effect
       effect="spiro"
       id="path-effect5494"
       is_visible="true" />
    <inkscape:path-effect
       effect="spiro"
       id="path-effect5489"
       is_visible="true" />
    <inkscape:path-effect
       effect="spiro"
       id="path-effect5412"
       is_visible="true" />
    <inkscape:path-effect
       effect="spiro"
       id="path-effect5407"
       is_visible="true" />
    <inkscape:path-effect
       effect="spiro"
       id="path-effect5402"
       is_visible="true" />
    <inkscape:path-effect
       effect="spiro"
       id="path-effect5397"
       is_visible="true" />
    <inkscape:path-effect
       effect="spiro"
       id="path-effect5392"
       is_visible="true" />
    <inkscape:path-effect
       effect="spiro"
       id="path-effect5388"
       is_visible="true" />
    <inkscape:path-effect
       effect="spiro"
       id="path-effect5383"
       is_visible="true" />
    <inkscape:path-effect
       effect="spiro"
       id="path-effect5378"
       is_visible="true" />
    <inkscape:path-effect
       effect="spiro"
       id="path-effect4732"
       is_visible="true" />
    <inkscape:path-effect
       effect="spiro"
       id="path-effect5412-7"
       is_visible="true" />
    <inkscape:path-effect
       effect="spiro"
       id="path-effect5388-7"
       is_visible="true" />
    <filter
       inkscape:collect="always"
       style="color-interpolation-filters:sRGB"
       id="filter4325">
      <feBlend
         inkscape:collect="always"
         mode="lighten"
         in2="BackgroundImage"
         id="feBlend4327" />
    </filter>
  </defs>
  <sodipodi:namedview
     id="base"
     pagecolor="#ffffff"
     bordercolor="#666666"
     borderopacity="1.0"
     inkscape:pageopacity="0.0"
     inkscape:pageshadow="2"
     inkscape:zoom="0.66804565"
     inkscape:cx="628.04825"
     inkscape:cy="367.00899"
     inkscape:document-units="px"
     inkscape:current-layer="layer1"
     showgrid="false"
     inkscape:window-width="1600"
     inkscape:window-height="848"
     inkscape:window-x="0"
     inkscape:window-y="0"
     inkscape:window-maximized="1"
     inkscape:snap-smooth-nodes="false" />
  <metadata
     id="metadata4664">
    <rdf:RDF>
      <cc:Work
         rdf:about="">
        <dc:format>image/svg+xml</dc:format>
        <dc:type
           rdf:resource="http://purl.org/dc/dcmitype/StillImage" />
        <dc:title />
      </cc:Work>
    </rdf:RDF>
  </metadata>
  <g
     inkscape:groupmode="layer"
     id="layer6"
     inkscape:label="Color"
     style="display:inline;filter:url(#filter4325)">
    <path
       style="opacity:1;fill:#dedee5;fill-opacity:1;stroke:#000000;stroke-width:1;stroke-linecap:round;stroke-linejoin:miter;stroke-miterlimit:4;stroke-dasharray:none;stroke-opacity:1"
       d="m 673.70631,481.38465 c 2.21725,-5.77805 3.83045,-29.1616 4.87965,-70.73097 0.95706,-37.91866 -0.55052,-72.44218 -4.10512,-94.0072 l -0.3995,-2.42371 37.26775,0.3848 c 20.49726,0.21165 45.42096,0.58195 55.386,0.82289 l 18.11825,0.43809 11.16888,16.56986 c 26.91897,39.93629 44.92319,74.46238 45.20151,86.68146 0.11708,5.13983 -0.62477,5.56491 -5.87492,3.3664 -17.16484,-7.1878 -41.59157,-9.58847 -59.31062,-5.82906 -18.6671,3.96055 -34.65019,12.78607 -48.82328,26.95917 -10.74045,10.74045 -17.72522,21.44675 -22.38556,34.31273 l -1.69442,4.67782 -14.94882,0 c -13.52176,0 -14.90406,-0.11668 -14.4798,-1.22228 z"
       id="path5848"
       inkscape:connector-curvature="0" />
    <path
       style="opacity:1;fill:#dedee5;fill-opacity:1;stroke:#000000;stroke-width:1;stroke-linecap:round;stroke-linejoin:miter;stroke-miterlimit:4;stroke-dasharray:none;stroke-opacity:1"
       d="m 342.36702,542.29597 c -0.74789,-32.11605 -5.48717,-54.24063 -16.04736,-74.91465 -14.50793,-28.40264 -39.51317,-46.21872 -71.54434,-50.97489 -9.98458,-1.48257 -25.52006,-1.49588 -33.25543,-0.0285 -28.98882,5.49908 -55.36507,27.12574 -63.6645,52.20039 -8.01509,24.21559 -8.63825,48.4692 -1.90479,74.13543 1.05923,4.03754 1.72311,7.54373 1.47529,7.79155 -1.11654,1.11655 -6.76656,-1.5928 -9.68681,-4.64511 -6.60421,-6.90285 -11.26392,-17.4818 -13.68533,-31.06982 -1.68967,-9.48177 -1.68796,-31.3311 0.003,-44.44418 6.17294,-47.85641 26.32222,-106.76476 56.86322,-166.24502 l 8.45468,-16.46594 14.15961,-0.86663 c 17.0138,-1.04132 26.05801,-2.19078 32.26018,-4.10004 3.94939,-1.21576 5.25023,-2.10893 8.8666,-6.08781 8.92396,-9.81851 19.71001,-25.30178 31.95459,-45.8705 12.74448,-21.40846 16.95417,-31.426 18.59453,-44.24815 l 0.87866,-6.8682 7.20655,-2.97589 c 34.93831,-14.42754 81.40656,-23.25005 138.93406,-26.37816 20.70969,-1.12611 68.16718,-0.49647 86.82041,1.15189 31.28159,2.76431 56.82302,7.90811 75.21941,15.14847 7.02078,2.7632 23.27749,11.0852 36.67415,18.77392 47.19159,27.08459 83.10541,55.72312 136.96668,109.2205 l 20.58243,20.44337 -49.0236,-0.4824 c -26.96297,-0.26533 -57.23249,-0.69179 -67.26559,-0.94771 l -18.24201,-0.46529 -2.5459,-9.35565 C 649.29361,222.43424 619.9247,189.39716 558.99547,177.26579 c -24.98563,-4.97479 -43.88549,-6.39172 -85.06094,-6.37705 -35.50336,0.0126 -43.1889,0.51261 -63.99263,4.1629 -62.58489,10.98134 -88.31732,40.9859 -88.31732,102.97988 0,18.2081 1.30404,30.73069 4.89711,47.02631 27.76084,125.90385 64.71888,182.73045 127.71864,196.37987 18.39682,3.98582 22.78637,4.22008 75.07964,4.00683 61.15785,-0.24941 79.04242,-1.12104 97.50294,-4.75198 15.34016,-3.0172 26.09323,-7.84585 33.73047,-15.1466 4.61916,-4.41565 7.58773,-8.94757 10.36836,-15.82872 l 2.41956,-5.98761 14.62263,-0.20294 c 8.04246,-0.11161 14.62264,-0.0532 14.62264,0.12977 0,0.18298 -0.99644,4.48435 -2.21431,9.55858 -3.84492,16.01974 -4.64501,23.30292 -5.06285,46.08714 l -0.38775,21.14376 -176.06622,0 -176.06624,0 -0.42266,-18.14995 z M 258.5888,368.8072 c 8.60601,-4.30048 13.22204,-11.9965 13.22204,-22.04428 0,-4.87771 -0.36168,-6.76732 -1.9512,-10.19392 -2.54091,-5.47752 -6.70981,-10.0231 -11.43126,-12.4641 -5.03604,-2.60363 -13.24127,-2.76859 -18.54716,-0.37288 -5.23352,2.36305 -10.51283,7.68437 -13.02201,13.12566 -1.83827,3.98637 -2.15069,5.59281 -2.14469,11.02792 0.006,5.44247 0.29697,6.91428 2.01336,10.18463 2.45779,4.68294 8.51973,10.27332 12.77299,11.77937 1.73938,0.61591 5.71895,1.14642 8.84348,1.17891 4.90263,0.051 6.30618,-0.25333 10.24445,-2.22131 z"
       id="path5850"
       inkscape:connector-curvature="0" />
    <path
       style="opacity:1;fill:#e6e6e6;fill-opacity:1;stroke:#000000;stroke-width:1;stroke-linecap:round;stroke-linejoin:miter;stroke-miterlimit:4;stroke-dasharray:none;stroke-opacity:1"
       d="m 882.70029,544.1671 c 3.71705,-7.64409 4.98745,-15.00945 5.00245,-29.00251 0.0408,-38.0415 -16.65571,-72.63669 -42.10421,-87.24005 -3.72069,-2.13508 -4.40174,-2.82951 -3.99264,-4.07108 3.56823,-10.82895 -13.19782,-44.93378 -45.9007,-93.36937 l -9.9805,-14.78192 11.77593,0 11.77594,0 5.64979,5.8005 c 16.77846,17.22604 36.18118,41.40412 50.60281,63.05707 41.70713,62.61997 57.09103,118.65453 42.77923,155.81969 l -2.21622,5.7551 -3.89248,0.78902 c -6.37731,1.29272 -14.11996,2.26496 -18.16342,2.28077 l -3.79261,0.0148 2.45663,-5.05205 z"
       id="path5852"
       inkscape:connector-curvature="0" />
    <path
       style="opacity:1;fill:#000608;fill-opacity:1;stroke:#000000;stroke-width:1;stroke-linecap:round;stroke-linejoin:miter;stroke-miterlimit:4;stroke-dasharray:none;stroke-opacity:1"
       d="m 236.34507,600.02278 c -26.29857,-3.04706 -50.98285,-20.57205 -63.35321,-44.9786 -16.07119,-31.70822 -10.15183,-71.50736 14.39811,-96.80636 15.91588,-16.40152 36.00013,-25.02871 58.26723,-25.02871 55.06277,0 94.06396,53.51546 78.49451,107.70619 -9.15162,31.85289 -37.15643,55.46932 -70.13758,59.14694 -7.99447,0.89143 -9.6669,0.8877 -17.66906,-0.0394 l 0,-10e-6 z m 16.44205,-26.15033 c 24.09395,-3.0166 43.72469,-20.19737 49.47633,-43.30151 2.25949,-9.07631 1.76472,-22.60246 -1.13846,-31.12384 -6.56225,-19.26135 -21.91372,-33.04502 -42.21326,-37.90217 -5.40248,-1.29266 -7.99206,-1.48953 -15.12566,-1.14989 -10.04732,0.47837 -15.33236,1.76567 -23.57624,5.74255 -22.952,11.07217 -35.80566,37.07614 -30.72505,62.15921 4.87716,24.07861 24.63731,42.37725 49.20647,45.56702 6.79621,0.88235 7.11586,0.88254 14.09587,0.009 l 0,2e-5 z"
       id="path5854"
       inkscape:connector-curvature="0" />
    <path
       style="opacity:1;fill:#000608;fill-opacity:1;stroke:#000000;stroke-width:1;stroke-linecap:round;stroke-linejoin:miter;stroke-miterlimit:4;stroke-dasharray:none;stroke-opacity:1"
       d="m 782.6714,595.8571 c -39.69665,-6.5908 -68.45599,-39.09027 -70.14575,-79.26815 -1.06459,-25.31301 7.82131,-47.59582 25.84829,-64.81869 17.3852,-16.60972 39.23885,-24.36533 62.76458,-22.27443 13.90302,1.23567 25.40562,5.23679 37.03635,12.88293 19.1946,12.61869 32.49105,32.92376 36.63513,55.94566 1.36285,7.57116 1.1673,23.59346 -0.37577,30.78904 -3.67162,17.12122 -11.16995,31.3289 -22.61282,42.84624 -12.33133,12.41157 -26.72904,20.13671 -43.51582,23.34856 -5.1007,0.97592 -21.01023,1.31655 -25.63419,0.54884 z m 23.7949,-26.86404 c 21.24285,-4.35516 38.20014,-20.37135 44.05048,-41.60577 1.80469,-6.55031 1.7977,-21.63321 -0.0131,-28.31442 -4.33763,-16.00412 -15.30829,-29.41264 -30.03543,-36.70986 -16.08943,-7.97223 -36.02124,-8.11101 -51.64318,-0.3596 -11.43438,5.6736 -20.03688,14.07548 -25.85687,25.25386 -4.34791,8.35098 -6.10612,15.68436 -6.15256,25.66196 -0.0477,10.25562 1.35923,16.36819 5.94063,25.80917 2.9738,6.12818 4.42741,8.07535 10.6401,14.25284 7.45778,7.41554 14.14212,11.6348 22.96949,14.49867 8.92459,2.89543 20.51606,3.47812 30.10047,1.51315 z"
       id="path5856"
       inkscape:connector-curvature="0" />
    <path
       style="opacity:1;fill:#2f2b2a;fill-opacity:1;stroke:#000000;stroke-width:1;stroke-linecap:round;stroke-linejoin:miter;stroke-miterlimit:4;stroke-dasharray:none;stroke-opacity:1"
       d="m 782.83839,481.80575 c -4.15206,-2.10197 -7.47111,-7.38666 -6.45457,-10.27717 1.1513,-3.27372 4.98434,-4.90005 12.38231,-5.25376 6.49303,-0.31043 6.58876,-0.28917 8.84188,1.96395 5.43357,5.43357 0.77401,13.34388 -8.6932,14.758 -2.10596,0.31457 -3.73193,-0.004 -6.07642,-1.19102 z"
       id="path5866"
       inkscape:connector-curvature="0" />
    <path
       style="opacity:1;fill:#2f2b2a;fill-opacity:1;stroke:#000000;stroke-width:1;stroke-linecap:round;stroke-linejoin:miter;stroke-miterlimit:4;stroke-dasharray:none;stroke-opacity:1"
       d="m 818.79967,493.11234 c -5.25319,-2.38467 -7.96959,-8.6037 -6.25608,-14.32289 1.2211,-4.07568 3.7729,-5.64017 7.39721,-4.53519 3.52937,1.07604 9.71753,5.76907 11.92368,9.04277 2.37525,3.52464 2.16201,5.73529 -0.84309,8.74039 -2.12295,2.12295 -3.08437,2.54202 -5.8005,2.5283 -1.79067,-0.009 -4.68022,-0.66306 -6.42122,-1.45338 z"
       id="path5868"
       inkscape:connector-curvature="0" />
    <path
       style="opacity:1;fill:#2f2b2a;fill-opacity:1;stroke:#000000;stroke-width:1;stroke-linecap:round;stroke-linejoin:miter;stroke-miterlimit:4;stroke-dasharray:none;stroke-opacity:1"
       d="m 830.71592,528.24423 c -2.86068,-1.7441 -5.34794,-6.60344 -5.35401,-10.46006 -0.006,-3.68925 2.82708,-8.26932 6.34834,-10.26365 3.6328,-2.0575 6.37428,-2.16094 8.64033,-0.326 3.5194,2.84984 2.63939,16.67917 -1.31285,20.63141 -2.33027,2.33027 -4.96832,2.46288 -8.32181,0.4183 z"
       id="path5870"
       inkscape:connector-curvature="0" />
    <path
       style="opacity:1;fill:#2f2b2a;fill-opacity:1;stroke:#000000;stroke-width:1;stroke-linecap:round;stroke-linejoin:miter;stroke-miterlimit:4;stroke-dasharray:none;stroke-opacity:1"
       d="m 808.78141,556.8003 c -4.94966,-3.9022 -4.48432,-9.73832 1.19381,-14.97224 3.12039,-2.87627 3.64541,-3.08724 7.68295,-3.08724 3.40208,0 4.93224,0.40672 7.11799,1.89198 5.38206,3.6572 4.09498,8.13306 -3.96444,13.78642 -5.52585,3.87617 -9.20919,4.60518 -12.03031,2.38108 z"
       id="path5872"
       inkscape:connector-curvature="0" />
    <path
       style="opacity:1;fill:#2f2b2a;fill-opacity:1;stroke:#000000;stroke-width:1;stroke-linecap:round;stroke-linejoin:miter;stroke-miterlimit:4;stroke-dasharray:none;stroke-opacity:1"
       d="m 779.4254,560.11103 c -6.62123,-2.72244 -9.41618,-5.41482 -9.45388,-9.10693 -0.0506,-4.95237 4.79183,-8.17926 11.44604,-7.62744 6.62781,0.54963 10.98372,5.35581 10.98372,12.11912 0,6.52654 -4.46501,8.11465 -12.97588,4.61525 z"
       id="path5874"
       inkscape:connector-curvature="0" />
    <path
       style="opacity:1;fill:#2f2b2a;fill-opacity:1;stroke:#000000;stroke-width:1;stroke-linecap:round;stroke-linejoin:miter;stroke-miterlimit:4;stroke-dasharray:none;stroke-opacity:1"
       d="m 752.58147,538.17948 c -2.31909,-2.47471 -4.63161,-6.94202 -5.75697,-11.12128 -1.56294,-5.80434 1.62566,-10.02248 7.57625,-10.02248 3.04952,0 5.24598,1.46991 8.11533,5.43093 6.30567,8.70473 -2.88294,23.23768 -9.93461,15.71283 z"
       id="path5876"
       inkscape:connector-curvature="0" />
    <path
       style="opacity:1;fill:#2f2b2a;fill-opacity:1;stroke:#000000;stroke-width:1;stroke-linecap:round;stroke-linejoin:miter;stroke-miterlimit:4;stroke-dasharray:none;stroke-opacity:1"
       d="m 751.47246,502.80991 c -3.95574,-1.59381 -4.13401,-5.47087 -0.57833,-12.57823 4.62375,-9.24234 9.38232,-11.45809 14.21938,-6.62103 2.85651,2.8565 3.70785,5.39364 3.02723,9.02166 -1.3925,7.42264 -10.18348,12.79038 -16.66828,10.1776 z"
       id="path5878"
       inkscape:connector-curvature="0" />
    <path
       style="opacity:1;fill:#2f2b2a;fill-opacity:1;stroke:#000000;stroke-width:1;stroke-linecap:round;stroke-linejoin:miter;stroke-miterlimit:4;stroke-dasharray:none;stroke-opacity:1"
       d="m 234.39852,485.70333 c -3.63969,-2.21955 -6.32994,-5.89635 -6.32994,-8.65121 0,-4.29831 3.78951,-6.44893 12.29875,-6.97981 5.77847,-0.3605 6.18901,-0.28051 8.48772,1.65372 2.09383,1.76184 2.41554,2.50329 2.41554,5.56714 0,4.1453 -1.56722,6.23459 -6.28324,8.3763 -3.92471,1.78236 -7.70179,1.79444 -10.58883,0.0339 z"
       id="path5880"
       inkscape:connector-curvature="0" />
    <path
       style="opacity:1;fill:#2f2b2a;fill-opacity:1;stroke:#000000;stroke-width:1;stroke-linecap:round;stroke-linejoin:miter;stroke-miterlimit:4;stroke-dasharray:none;stroke-opacity:1"
       d="m 269.68557,496.62809 c -3.75345,-2.15188 -5.6913,-5.80457 -5.6913,-10.72763 0,-9.81164 7.67657,-10.44114 17.02728,-1.39627 3.48463,3.37065 3.92937,4.14856 3.92937,6.87288 0,2.51156 -0.42012,3.42553 -2.30278,5.00969 -3.05284,2.56879 -8.71886,2.67428 -12.96257,0.24133 z"
       id="path5882"
       inkscape:connector-curvature="0" />
    <path
       style="opacity:1;fill:#2f2b2a;fill-opacity:1;stroke:#000000;stroke-width:1;stroke-linecap:round;stroke-linejoin:miter;stroke-miterlimit:4;stroke-dasharray:none;stroke-opacity:1"
       d="m 282.62568,532.38129 c -2.51163,-1.36514 -4.20522,-3.98571 -5.0736,-7.85062 -0.9745,-4.33716 0.24716,-8.06324 3.73422,-11.38944 5.41091,-5.16131 11.01607,-4.40411 12.66259,1.71057 0.84452,3.13634 0.38039,9.93824 -0.91509,13.41069 -1.80096,4.82734 -6.02738,6.49986 -10.40812,4.1188 z"
       id="path5884"
       inkscape:connector-curvature="0" />
    <path
       style="opacity:1;fill:#2f2b2a;fill-opacity:1;stroke:#000000;stroke-width:1;stroke-linecap:round;stroke-linejoin:miter;stroke-miterlimit:4;stroke-dasharray:none;stroke-opacity:1"
       d="m 260.81333,561.13442 c -1.7754,-1.03408 -3.55597,-4.64421 -3.55129,-7.20028 0.005,-2.78114 2.75239,-7.19589 5.94278,-9.54968 5.74823,-4.24091 16.50694,-0.91044 16.50694,5.1099 0,1.74431 -0.89615,3.12648 -3.92938,6.0605 -5.88341,5.69098 -11.30693,7.71254 -14.96905,5.57956 z"
       id="path5886"
       inkscape:connector-curvature="0" />
    <path
       style="opacity:1;fill:#2f2b2a;fill-opacity:1;stroke:#000000;stroke-width:1;stroke-linecap:round;stroke-linejoin:miter;stroke-miterlimit:4;stroke-dasharray:none;stroke-opacity:1"
       d="m 229.90752,563.54419 c -5.79389,-2.741 -8.88199,-6.24116 -8.2582,-9.36011 0.56671,-2.83356 2.37679,-4.88607 5.45966,-6.19091 7.68688,-3.25351 16.27439,1.9597 17.22313,10.45565 0.80095,7.17238 -5.40236,9.36365 -14.42459,5.09537 z"
       id="path5888"
       inkscape:connector-curvature="0" />
    <path
       style="opacity:1;fill:#2f2b2a;fill-opacity:1;stroke:#000000;stroke-width:1;stroke-linecap:round;stroke-linejoin:miter;stroke-miterlimit:4;stroke-dasharray:none;stroke-opacity:1"
       d="m 206.6254,543.9304 c -2.18607,-0.80868 -5.06817,-4.76321 -6.93894,-9.52089 -2.5887,-6.58352 -1.92917,-10.38066 2.17132,-12.50111 3.47896,-1.79904 6.36911,-1.42004 9.38868,1.23118 3.80202,3.33822 5.85412,7.65683 5.36636,11.29339 -0.80448,5.99784 -6.02575,10.96295 -9.98742,9.49743 z"
       id="path5890"
       inkscape:connector-curvature="0" />
    <path
       style="opacity:1;fill:#2f2b2a;fill-opacity:1;stroke:#000000;stroke-width:1;stroke-linecap:round;stroke-linejoin:miter;stroke-miterlimit:4;stroke-dasharray:none;stroke-opacity:1"
       d="m 201.87276,505.80894 c -2.20116,-2.20116 -1.92306,-6.3926 0.78351,-11.80893 2.3836,-4.77001 6.59107,-9.14971 8.7853,-9.14493 1.89273,0.004 5.88395,2.63965 7.32263,4.83536 1.76204,2.6892 1.16473,9.09187 -1.15165,12.34493 -3.39479,4.76753 -12.55071,6.96264 -15.73979,3.77357 z"
       id="path5892"
       inkscape:connector-curvature="0" />
    <path
       style="opacity:1;fill:#101010;fill-opacity:1;stroke:#000000;stroke-width:1;stroke-linecap:round;stroke-linejoin:miter;stroke-miterlimit:4;stroke-dasharray:none;stroke-opacity:1"
       d="m 157.35918,545.05829 c -4.29426,-14.77174 -6.11743,-31.79489 -4.86976,-45.46961 0.89458,-9.80482 3.62971,-24.01681 5.8819,-30.56293 6.13774,-17.83963 21.10956,-34.04584 40.66659,-44.01944 12.81023,-6.5329 23.34742,-8.99653 38.51927,-9.00594 48.36777,-0.03 83.35922,26.9224 97.16181,74.83953 4.09007,14.19909 7.10577,35.86021 7.11171,51.08184 l 0.003,6.54895 -9.59869,0 -9.59869,0 1.76844,-5.42454 c 5.36632,-16.46073 5.25997,-36.37 -0.28489,-53.32893 -8.69705,-26.59987 -30.31966,-47.29395 -57.13135,-54.67799 -10.35687,-2.85232 -26.5002,-3.35928 -37.11636,-1.1656 -17.16964,3.54788 -31.62547,11.6792 -43.90536,24.69653 -20.07936,21.28518 -27.76937,53.18563 -19.60918,81.34473 1.00939,3.48319 1.83525,6.49638 1.83525,6.69598 0,0.19961 -1.44067,0.36292 -3.2015,0.36292 -1.76082,0 -3.92557,0.50717 -4.81056,1.12703 -1.56242,1.09437 -1.6442,1.00617 -2.82119,-3.04253 z"
       id="path5894"
       inkscape:connector-curvature="0" />
    <path
       style="opacity:1;fill:#1a1a1a;fill-opacity:1;stroke:#000000;stroke-width:1;stroke-linecap:round;stroke-linejoin:miter;stroke-miterlimit:4;stroke-dasharray:none;stroke-opacity:1"
       d="m 874.67125,545.50598 c -2.28933,-2.17779 -2.97604,-3.32009 -2.58714,-4.3036 0.29118,-0.73639 1.18523,-3.86491 1.98678,-6.95227 8.89963,-34.27904 -4.7372,-71.45168 -33.5087,-91.34141 -36.2246,-25.04204 -85.21927,-17.03431 -111.93128,18.29414 -5.8467,7.73265 -12.06633,20.61764 -14.52703,30.09508 -3.81363,14.68833 -3.15367,34.2706 1.62886,48.33184 1.00284,2.94847 1.82335,5.63868 1.82335,5.97822 0,0.33955 -4.88365,0.61736 -10.85255,0.61736 l -10.85255,0 9e-4,-9.54276 c 0.002,-22.5274 5.08222,-48.63421 12.82548,-65.91089 6.13366,-13.68538 19.64041,-29.42617 32.78362,-38.20611 19.85917,-13.26633 38.34913,-18.30315 60.87771,-16.58359 34.96954,2.66916 58.22812,17.43471 72.61561,46.09954 8.76537,17.46362 13.63875,42.63961 11.8332,61.13058 -1.23885,12.68729 -5.24355,25.25858 -8.04635,25.25858 -0.52434,0 -2.3558,-1.33412 -4.06991,-2.96471 z"
       id="path5896"
       inkscape:connector-curvature="0" />
    <path
       style="opacity:1;fill:#1a1a1a;fill-opacity:1;stroke:#000000;stroke-width:1;stroke-linecap:round;stroke-linejoin:miter;stroke-miterlimit:4;stroke-dasharray:none;stroke-opacity:1"
       d="m 157.06669,542.65486 c -3.24103,-12.08442 -4.13882,-19.43915 -4.13233,-33.85211 0.005,-11.93491 0.28132,-15.24904 1.99892,-24.00724 1.09598,-5.58848 2.80334,-12.55694 3.79413,-15.48546 7.53976,-22.28564 29.39333,-41.94239 55.73675,-50.13384 6.28714,-1.95498 7.05473,-2.01876 24.08275,-2.00091 17.25759,0.0181 17.75061,0.0618 26.19581,2.32503 17.79637,4.76916 30.71447,12.07369 42.66427,24.12448 14.24931,14.36973 23.33469,31.58036 28.67804,54.32538 3.06696,13.05513 5.6299,34.72085 5.73281,48.46226 l 0.0154,2.05824 -9.43572,0 c -8.6827,0 -9.39482,-0.10452 -8.92316,-1.30979 0.28191,-0.72038 1.41256,-4.50942 2.51255,-8.42008 1.87536,-6.66728 1.99677,-8.04294 1.94856,-22.07933 -0.0568,-16.53198 -0.72034,-20.30737 -5.7871,-32.9263 -10.56896,-26.3223 -35.87992,-46.54825 -63.26121,-50.55192 -9.81735,-1.43549 -26.65466,-0.57745 -34.85803,1.77639 -27.707,7.95012 -49.58393,29.78985 -57.62056,57.52258 -4.20532,14.51168 -4.51402,30.76335 -0.86339,45.45356 2.10942,8.48832 1.99051,9.00439 -2.0798,9.02653 -1.15909,0.006 -2.72387,0.34136 -3.47729,0.74458 -1.22507,0.65564 -1.53382,0.12171 -2.92142,-5.05205 z"
       id="path5898"
       inkscape:connector-curvature="0" />
    <path
       style="opacity:1;fill:#30302d;fill-opacity:1;stroke:#000000;stroke-width:1;stroke-linecap:round;stroke-linejoin:miter;stroke-miterlimit:4;stroke-dasharray:none;stroke-opacity:1"
       d="m 506.11844,311.87153 c -69.5686,-0.75474 -139.00576,-1.58757 -154.3048,-1.85074 l -27.81644,-0.47849 -0.62473,-7.21128 c -0.3436,-3.9662 -0.59347,-15.46296 -0.55526,-25.54835 0.0782,-20.64621 1.26628,-29.7391 5.5771,-42.68441 4.20905,-12.63972 9.07226,-20.63736 18.11758,-29.79467 18.44519,-18.67358 49.10374,-29.02362 95.61392,-32.27837 14.01306,-0.98063 47.7591,-0.98648 64.84517,-0.0112 41.76153,2.38366 68.7532,7.9887 90.3285,18.75747 24.96386,12.46007 43.18215,33.35037 57.12859,65.5074 4.73964,10.92845 12.38891,33.42522 16.19672,47.6352 l 2.55715,9.54276 -20.28757,-0.10652 c -11.15816,-0.0586 -77.20733,-0.72402 -146.77593,-1.47876 z m 128.57093,-2.71832 c 0.46711,-0.87469 -0.82957,-16.1393 -2.14578,-25.26025 -1.54833,-10.72943 -5.49222,-25.96565 -8.9119,-34.42878 -8.1391,-20.14297 -23.10411,-38.77253 -36.80815,-45.82156 -14.64689,-7.534 -37.79938,-12.8599 -69.85255,-16.06858 -14.46824,-1.44834 -53.31643,-1.21638 -66.61221,0.39775 -27.48315,3.33648 -40.40832,7.95749 -50.54399,18.07047 -11.88347,11.85686 -16.90863,30.33819 -15.77504,58.01673 0.45303,11.06159 3.07606,42.56136 3.58265,43.02389 0.13236,0.12084 49.75074,0.61614 110.26307,1.10067 103.57036,0.82929 117.7793,0.97798 131.12202,1.37205 2.96015,0.0874 5.517,-0.0937 5.68188,-0.40239 z m -282.46502,-5.46435 c 7.29945,-1.18441 8.8074,-2.2432 10.35296,-7.26922 0.99204,-3.22605 1.32222,-6.89922 1.32782,-14.77203 0.007,-9.18501 -0.18548,-10.84615 -1.55569,-13.4584 -2.15071,-4.10022 -5.61092,-5.10066 -16.02547,-4.6334 -4.32231,0.19393 -8.41324,0.57752 -9.09097,0.85243 -1.59349,0.64636 -1.98498,3.02497 -2.59102,15.74247 -0.55536,11.65407 0.45539,20.43194 2.57017,22.32063 2.20935,1.97315 7.64057,2.41363 15.0122,1.21752 z"
       id="path5902"
       inkscape:connector-curvature="0" />
    <path
       style="opacity:1;fill:#4a4a4a;fill-opacity:1;stroke:#000000;stroke-width:1;stroke-linecap:round;stroke-linejoin:miter;stroke-miterlimit:4;stroke-dasharray:none;stroke-opacity:1"
       d="m 624.74806,308.4903 c -2.26407,-0.10601 -56.321,-0.58021 -120.12652,-1.05378 -63.80552,-0.47357 -116.13971,-0.98609 -116.29819,-1.13893 -0.41111,-0.39647 -2.10898,-19.92251 -3.19501,-36.74362 -1.47722,-22.88003 0.53159,-37.80008 6.87618,-51.07153 4.0587,-8.4899 12.06386,-16.62053 20.20988,-20.52664 32.54025,-15.60346 124.05331,-13.97543 166.38192,2.95994 9.83335,3.93426 14.93514,7.23252 21.41595,13.84526 20.17193,20.58257 30.83652,47.96307 33.55867,86.15924 l 0.5734,8.04586 -2.63989,-0.14152 c -1.45195,-0.0778 -4.49232,-0.22826 -6.75639,-0.33428 z m -14.22121,-4.20202 c -10e-4,-5.21773 -1.58309,-19.28687 -3.03864,-27.02774 -3.93449,-20.92428 -11.58642,-36.11504 -24.399,-48.43733 -6.24956,-6.01041 -10.0334,-8.27206 -19.51061,-11.66173 -21.26285,-7.60498 -49.61828,-11.28722 -80.97475,-10.5154 -38.22644,0.94092 -56.27182,7.65167 -64.27154,23.90142 -3.84363,7.80751 -4.79414,12.5076 -5.18781,25.65275 -0.29259,9.76981 0.0106,15.28264 1.64626,29.9343 1.10269,9.87749 2.06272,18.00276 2.1334,18.05614 0.0707,0.0534 32.63003,0.52181 72.35412,1.04093 39.72408,0.51912 72.36593,1.06654 72.53746,1.21649 0.17151,0.14995 11.20182,0.27264 24.51179,0.27264 l 24.19995,0 -6.3e-4,-2.43247 z"
       id="path5908"
       inkscape:connector-curvature="0" />
    <path
       style="opacity:1;fill:#9ca4ad;fill-opacity:0.86666667;stroke:#000000;stroke-width:1;stroke-linecap:round;stroke-linejoin:miter;stroke-miterlimit:4;stroke-dasharray:none;stroke-opacity:1"
       d="m 575.28787,305.69849 c -0.17152,-0.1506 -35.67621,-0.70099 -78.8993,-1.2231 -43.2231,-0.5221 -78.63865,-0.9883 -78.70123,-1.03598 -0.0626,-0.0477 -1.02465,-8.33838 -2.13792,-18.42377 -3.92314,-35.54049 -1.38987,-51.39481 10.03049,-62.77522 6.80708,-6.78326 17.04107,-10.75732 34.31071,-13.32353 10.84971,-1.61224 45.47418,-1.84081 58.20305,-0.38423 20.33575,2.32703 38.01255,6.32602 49.77205,11.25983 6.69878,2.81054 8.4097,3.89823 13.22524,8.40775 17.7172,16.59129 25.62537,36.58697 28.31634,71.59733 l 0.4746,6.17472 -17.14109,0 c -9.4276,0 -17.28142,-0.12321 -17.45294,-0.2738 z"
       id="path5910"
       inkscape:connector-curvature="0" />
    <path
       style="opacity:1;fill:#b8f7f7;fill-opacity:1;stroke:#000000;stroke-width:1;stroke-linecap:round;stroke-linejoin:miter;stroke-miterlimit:4;stroke-dasharray:none;stroke-opacity:1"
       d="m 563.00078,352.58378 c -99.13854,-0.68539 -183.5624,-1.63342 -184.652,-2.07355 -1.54504,-0.6241 -2.35324,-2.85123 -1.73806,-4.78949 1.0563,-3.3281 -1.23508,-3.28857 116.93205,-2.01747 141.50038,1.5221 132.20929,1.34213 133.71119,2.58995 1.723,1.43154 1.59535,5.08984 -0.21134,6.05676 -0.90993,0.48698 -8.06897,0.7089 -19.27264,0.59743 -9.80371,-0.0976 -29.94985,-0.26118 -44.7692,-0.36363 z"
       id="path5912"
       inkscape:connector-curvature="0" />
    <path
       style="opacity:1;fill:#1a1a1a;fill-opacity:1;stroke:#000000;stroke-width:1;stroke-linecap:round;stroke-linejoin:miter;stroke-miterlimit:4;stroke-dasharray:none;stroke-opacity:1"
       d="m 342.20749,303.40286 c -0.41165,-0.16139 -1.64101,-0.48927 -2.73191,-0.72862 -1.36861,-0.30028 -2.25676,-1.19061 -2.86513,-2.87216 -2.12205,-5.86538 -1.54216,-32.27091 0.75926,-34.57293 1.18002,-1.18034 19.37387,-1.0433 21.48308,0.16182 2.9608,1.69168 4.16049,5.21008 4.52229,13.26283 0.37743,8.40066 -1.25126,19.1723 -3.22938,21.3581 -0.65463,0.72336 -2.60091,1.66955 -4.32506,2.10267 -3.53907,0.88902 -12.47465,1.73464 -13.61315,1.28829 z"
       id="path5916"
       inkscape:connector-curvature="0" />
    <path
       style="opacity:1;fill:#424447;fill-opacity:1;stroke:#000000;stroke-width:1;stroke-linecap:round;stroke-linejoin:miter;stroke-miterlimit:4;stroke-dasharray:none;stroke-opacity:1"
       d="m 825.33316,315.14432 -15.34327,-0.21641 -15.34326,-15.18961 c -52.28399,-51.76042 -85.43544,-79.41689 -124.99146,-104.27367 -8.60332,-5.40628 -27.26995,-16.088 -35.73857,-20.4509 -3.3961,-1.74962 -6.17473,-3.43353 -6.17473,-3.74202 0,-0.69036 11.1773,-5.88017 15.52555,-7.20877 2.38028,-0.72729 3.75982,-0.76696 5.50577,-0.15832 l 2.32968,0.81214 -3.34322,2.08087 c -3.19324,1.98752 -6.54565,5.45507 -6.54565,6.77047 0,1.21375 3.0819,3.41159 16.60459,11.84146 19.64985,12.24947 55.53094,36.13363 66.47357,44.24797 12.5322,9.29307 27.95497,21.88065 55.38543,45.20386 25.88035,22.00519 32.43055,27.07239 38.21644,29.56397 5.27787,2.27282 14.1776,2.74618 24.65352,1.31126 4.32231,-0.59204 8.36395,-0.80531 8.98142,-0.47395 0.61747,0.33137 3.30217,2.81582 5.96599,5.52099 l 4.84332,4.91851 -10.83093,-0.17072 c -5.95701,-0.0939 -17.7354,-0.26811 -26.17419,-0.38713 z"
       id="path5922"
       inkscape:connector-curvature="0" />
    <path
       style="opacity:1;fill:#9ca4ad;fill-opacity:0.86666667;stroke:#000000;stroke-width:1;stroke-linecap:round;stroke-linejoin:miter;stroke-miterlimit:4;stroke-dasharray:none;stroke-opacity:1"
       d="m 821.53802,304.94888 c -6.70331,-1.8074 -12.0461,-5.79573 -42.39277,-31.64572 -48.12709,-40.99576 -65.32633,-53.64672 -118.27571,-86.99811 -9.97771,-6.28469 -18.35146,-11.76676 -18.60833,-12.18239 -0.64266,-1.03985 3.95723,-5.68284 7.37539,-7.44449 l 2.80921,-1.44782 6.37148,2.63749 c 33.43081,13.83872 82.73472,45.3124 130.59018,83.36362 20.26113,16.1102 59.87615,50.77152 59.87615,52.38888 0,0.69335 -14.74281,2.3695 -20.24268,2.30144 -2.24511,-0.0278 -5.62142,-0.46559 -7.50292,-0.9729 z"
       id="path5924"
       inkscape:connector-curvature="0" />
    <path
       style="opacity:1;fill:#843a3a;fill-opacity:1;stroke:#000000;stroke-width:1;stroke-linecap:round;stroke-linejoin:miter;stroke-miterlimit:4;stroke-dasharray:none;stroke-opacity:1"
       d="m 182.99057,286.17661 c 0.29982,-0.49145 7.89273,-10.2158 16.87314,-21.60968 l 16.32802,-20.71614 30.66367,0 c 30.12008,0 30.64988,0.0258 29.88625,1.45261 -1.49248,2.78873 -11.46818,16.93174 -16.1327,22.87208 -6.03866,7.69031 -10.50734,11.98638 -13.96462,13.4252 -6.02857,2.50891 -24.90267,4.31791 -53.92389,5.16836 -7.83088,0.22948 -10.14533,0.0885 -9.72987,-0.59243 z"
       id="path5926"
       inkscape:connector-curvature="0" />
    <path
       style="opacity:1;fill:#df3939;fill-opacity:1;stroke:#000000;stroke-width:1;stroke-linecap:round;stroke-linejoin:miter;stroke-miterlimit:4;stroke-dasharray:none;stroke-opacity:1"
       d="m 231.43661,241.86188 c 1.23495,-0.65573 2.79315,-1.66984 3.46267,-2.25356 1.05524,-0.92001 1.27633,-0.90753 1.66053,0.0937 0.37153,0.96819 2.21417,1.15499 11.39325,1.15499 12.83972,0 14.36587,-0.49105 19.49716,-6.27344 4.58966,-5.17204 18.18879,-25.62004 21.94668,-32.9996 2.96022,-5.81313 3.89036,-10.46455 2.20493,-11.02636 -0.50687,-0.16895 -0.0668,-1.40781 1.12268,-3.16062 1.50089,-2.2117 1.95628,-3.80641 1.95628,-6.85062 0,-2.18233 -0.3368,-4.17603 -0.74845,-4.43044 -1.44152,-0.89091 -0.71195,-1.61334 3.81379,-3.77645 4.33885,-2.07378 4.61066,-2.11433 5.55112,-0.82818 2.60701,3.56531 1.81252,17.21527 -1.59669,27.43241 -2.46086,7.375 -8.31011,18.86042 -16.61595,32.62662 l -6.73208,11.15781 -24.58064,0.16301 c -22.87225,0.15169 -24.42458,0.0802 -22.33528,-1.02924 z"
       id="path5928"
       inkscape:connector-curvature="0" />
    <path
       style="opacity:1;fill:#ff5555;fill-opacity:1;stroke:#000000;stroke-width:1;stroke-linecap:round;stroke-linejoin:miter;stroke-miterlimit:4;stroke-dasharray:none;stroke-opacity:1"
       d="m 217.715,242.42164 c 0.72514,-1.97849 18.14078,-21.40833 28.276,-31.54625 15.07193,-15.07594 29.04912,-26.22426 42.09125,-33.57234 l 4.254,-2.39675 0.88279,1.6495 c 0.50264,0.93919 0.731,3.22905 0.53032,5.31761 -0.45029,4.68626 -2.40642,6.77509 -11.78992,12.58973 -10.6693,6.61141 -18.30972,13.10198 -29.72953,25.25534 -18.77925,19.98556 -20.55705,21.67133 -23.7871,22.55577 -3.62549,0.9927 -11.07515,1.09506 -10.72781,0.14739 z"
       id="path5932"
       inkscape:connector-curvature="0" />
    <path
       style="opacity:1;fill:#464748;fill-opacity:1;stroke:#000000;stroke-width:1;stroke-linecap:round;stroke-linejoin:miter;stroke-miterlimit:4;stroke-dasharray:none;stroke-opacity:1"
       d="m 501.25351,142.65957 c -12.55528,-0.36324 -27.16478,-0.48698 -32.46555,-0.27499 l -9.63776,0.38544 0.49853,-8.4002 c 1.94082,-32.70295 5.75246,-40.730961 21.63547,-45.568299 4.34942,-1.324659 6.45142,-1.501761 14.22059,-1.198133 21.69734,0.847956 27.20475,8.142353 30.77944,40.766372 1.59166,14.52613 1.56787,15.21697 -0.51893,15.06936 -0.92621,-0.0655 -11.95651,-0.41631 -24.51179,-0.77955 z"
       id="path5936"
       inkscape:connector-curvature="0" />
    <path
       style="opacity:1;fill:#b4b3b0;fill-opacity:1;stroke:#000000;stroke-width:1;stroke-linecap:round;stroke-linejoin:miter;stroke-miterlimit:4;stroke-dasharray:none;stroke-opacity:1"
       d="m 135.96018,536.10256 c -8.36247,-8.68368 -11.84694,-14.48095 -14.74684,-24.53507 -3.4636,-12.00848 -4.74124,-29.59621 -3.57683,-49.23777 l 0.76865,-12.96571 2.38611,-2.71762 c 3.89883,-4.44052 5.68896,-9.44339 11.49177,-32.11607 3.03557,-11.86052 6.87236,-25.94303 8.52621,-31.29446 8.08881,-26.17331 10.45537,-38.49439 9.13208,-47.54445 l -0.83068,-5.68102 5.17902,-10.87898 c 4.7588,-9.99628 5.44359,-11.03429 8.43991,-12.79314 2.85338,-1.67495 10.11215,-8.59783 16.82881,-16.05008 2.14193,-2.3765 2.17956,-2.38587 10.56967,-2.63147 4.63104,-0.13556 8.42008,-0.16749 8.42008,-0.071 0,0.0965 -2.67172,5.20594 -5.93715,11.35426 -29.75068,56.01603 -51.30897,117.27777 -58.89967,167.37401 -1.94399,12.82974 -1.97273,42.25629 -0.05,51.17373 1.83938,8.53076 5.25253,17.6143 8.39957,22.35409 1.43769,2.16532 2.31643,3.93694 1.95276,3.93694 -0.36367,0 -3.98774,-3.4543 -8.0535,-7.67622 z"
       id="path5946"
       inkscape:connector-curvature="0" />
    <path
       style="opacity:1;fill:#b4b3b0;fill-opacity:1;stroke:#000000;stroke-width:1;stroke-linecap:round;stroke-linejoin:miter;stroke-miterlimit:4;stroke-dasharray:none;stroke-opacity:0.98823529"
       d="m 305.57215,176.10181 c -0.003,-1.33786 -0.46426,-3.31335 -1.02604,-4.38999 l -1.02143,-1.95753 10.94302,-3.87345 c 35.23511,-12.47198 73.12274,-19.39413 119.09432,-21.75877 19.07016,-0.98091 73.28678,-0.97497 93.21675,0.0102 29.6094,1.46368 54.91916,4.2561 78.17873,8.62546 9.55812,1.79551 33.37355,7.62476 37.42259,9.15984 1.85852,0.7046 1.85159,0.71759 -1.02697,1.92697 -1.59395,0.66967 -3.04289,1.21759 -3.21987,1.21759 -0.17698,0 -2.92426,1.29862 -6.10506,2.88584 l -5.78326,2.88584 -5.59166,-2.50411 c -27.00342,-12.09288 -66.23395,-18.37169 -121.60171,-19.46222 -71.4938,-1.40816 -138.02322,7.9279 -182.37334,25.59243 -5.62617,2.24089 -10.42562,4.07435 -10.66544,4.07435 -0.23981,0 -0.4381,-1.09461 -0.44063,-2.43247 z"
       id="path5948"
       inkscape:connector-curvature="0" />
    <path
       style="opacity:1;fill:#b4b3b0;fill-opacity:1;stroke:#000000;stroke-width:1;stroke-linecap:round;stroke-linejoin:miter;stroke-miterlimit:4;stroke-dasharray:none;stroke-opacity:1"
       d="m 908.85037,540.97209 c 1.16679,-2.77863 2.85114,-8.58849 3.74299,-12.9108 2.26128,-10.95915 1.7837,-31.14056 -1.05383,-44.53288 -10.29511,-48.58991 -43.62038,-105.93963 -92.16915,-158.61465 -6.51902,-7.07308 -8.41857,-9.53997 -7.06781,-9.17876 1.01597,0.27169 15.53829,0.49858 32.27182,0.5042 l 30.4246,0.0102 6.24954,4.98099 c 24.33477,19.39521 52.72491,57.68014 64.20733,86.58546 1.203,3.02837 3.37528,10.86166 4.82731,17.40732 8.64662,38.97861 10.88646,72.53859 5.97776,89.56598 -3.67267,12.73977 -17.2296,22.10517 -42.46366,29.33471 -3.64797,1.04514 -6.73071,1.90026 -6.85051,1.90026 -0.11981,0 0.73681,-2.27342 1.90361,-5.05205 z"
       id="path5950"
       inkscape:connector-curvature="0" />
    <path
       style="opacity:1;fill:#e6e6e6;fill-opacity:1;stroke:#000000;stroke-width:1;stroke-linecap:round;stroke-linejoin:miter;stroke-miterlimit:4;stroke-dasharray:none;stroke-opacity:1"
       d="m 242.65392,369.89476 c -10.76331,-3.00204 -17.11204,-11.14673 -17.14507,-21.99517 -0.0311,-10.1976 4.79167,-18.22113 13.597,-22.6212 3.81254,-1.90515 5.47759,-2.2929 9.84603,-2.2929 8.56941,0 14.87468,3.96911 19.2016,12.08724 4.90488,9.20249 3.70555,20.16719 -3.0447,27.83588 -5.39895,6.13354 -14.90646,9.09151 -22.45486,6.98615 z"
       id="path5956"
       inkscape:connector-curvature="0" />
    <path
       style="opacity:1;fill:#e6e6e6;fill-opacity:1;stroke:#000000;stroke-width:1;stroke-linecap:round;stroke-linejoin:miter;stroke-miterlimit:4;stroke-dasharray:none;stroke-opacity:1"
       d="m 236.71919,238.9195 c 0,-2.49563 25.33573,-29.08601 34.19493,-35.88828 6.59573,-5.06434 16.36569,-10.99541 18.97029,-11.51633 1.87609,-0.37522 2.22021,-0.20932 2.22021,1.07034 0,5.90383 -22.09768,39.85333 -29.36893,45.1206 l -3.03909,2.2015 -11.48871,0 c -9.01618,0 -11.4887,-0.21259 -11.4887,-0.98783 z"
       id="path5958"
       inkscape:connector-curvature="0" />
    <path
       style="opacity:1;fill:#dedee5;fill-opacity:1;stroke:#000000;stroke-width:1;stroke-linecap:round;stroke-linejoin:miter;stroke-miterlimit:4;stroke-dasharray:none;stroke-opacity:1"
       d="m 235.82614,572.59146 c -11.52474,-2.1861 -22.61714,-8.17668 -30.81229,-16.64052 -5.14862,-5.31743 -6.41724,-7.09493 -9.86712,-13.82512 -8.9709,-17.50088 -7.81934,-38.54176 3.02702,-55.30852 7.61194,-11.76685 18.94434,-19.99525 33.08235,-24.02092 8.23273,-2.3442 21.40236,-2.3449 29.63171,-0.002 23.04259,6.56141 38.68212,24.51183 41.80733,47.98475 2.46408,18.50732 -5.8013,38.25204 -21.06884,50.3302 -12.6562,10.01234 -30.26915,14.42775 -45.80016,11.48171 z m 5.28787,-6.43784 c 2.90169,-1.01154 3.83815,-2.6297 3.83815,-6.63219 0,-4.16681 -1.50379,-7.45196 -4.69292,-10.25205 -6.87847,-6.03938 -19.25754,-2.4222 -19.25754,5.62707 0,4.77175 3.60516,8.01052 11.85276,10.64818 5.12204,1.63808 5.27511,1.64936 8.25955,0.60899 z m 30.78736,-6.19756 c 4.08824,-2.70547 8.12692,-6.90666 8.65248,-9.00064 0.69094,-2.75293 -1.48708,-6.08442 -5.13106,-7.84844 -5.88548,-2.84912 -10.93193,-1.71815 -15.64642,3.50653 -4.40571,4.88251 -4.5432,10.37346 -0.35634,14.23102 2.99925,2.76334 7.44085,2.44717 12.48134,-0.88847 z m -60.0984,-16.15071 c 6.98194,-4.25711 7.10216,-15.44937 0.22809,-21.23351 -6.63265,-5.58102 -15.97925,-1.0611 -14.67479,7.09657 0.63956,3.99957 3.98755,10.80329 6.60325,13.41899 2.55911,2.55911 4.52821,2.73935 7.84345,0.71795 z m 77.69824,-10.1885 c 3.54112,-1.68037 5.07071,-5.36889 5.40762,-13.04007 0.23474,-5.34487 0.0445,-6.73452 -1.18992,-8.6932 -2.41593,-3.83337 -7.40193,-3.82794 -12.43838,0.0136 -4.74873,3.62203 -6.15275,9.98205 -3.48576,15.78994 1.93768,4.21968 3.9679,5.81663 8.95758,7.04596 0.14361,0.0354 1.3806,-0.4669 2.74886,-1.11618 z m -37.74746,-7.26204 c 3.01167,-2.02956 4.3991,-4.50429 4.41415,-7.87345 0.0241,-5.40055 -3.86829,-9.2561 -9.34461,-9.2561 -5.47633,0 -9.36875,3.85555 -9.34462,9.2561 0.0151,3.36916 1.40248,5.84389 4.41415,7.87345 3.22034,2.17019 6.64059,2.17019 9.86093,0 z m -38.41499,-19.77579 c 4.9959,-2.35369 8.34298,-8.71269 7.35577,-13.97496 -1.00125,-5.33713 -6.88857,-9.64641 -10.99892,-8.05076 -2.76812,1.07459 -5.58728,4.49372 -8.10317,9.82766 -3.43087,7.27381 -2.9398,11.09064 1.69246,13.15461 2.6447,1.17839 6.25047,0.83532 10.05386,-0.95655 z m 67.37548,-8.10344 c 8.23727,-3.2959 6.46963,-11.762 -3.84812,-18.43069 -3.69933,-2.391 -5.12496,-2.90589 -7.54751,-2.72595 -2.44172,0.18137 -3.29845,0.68591 -4.69516,2.76501 -2.09893,3.12441 -2.21204,7.51536 -0.30081,11.67743 1.68481,3.669 3.6075,5.44423 7.33712,6.77438 3.74736,1.33647 5.59459,1.3242 9.05448,-0.0602 z m -34.42835,-12.42976 c 4.36976,-2.11537 6.33401,-5.26521 5.90609,-9.47096 -0.5956,-5.85392 -4.74068,-8.1807 -13.05593,-7.32878 -7.81218,0.80038 -12.14674,3.44555 -12.14674,7.41257 0,2.64372 2.49787,6.66906 5.47802,8.82787 3.76327,2.7261 8.91205,2.9345 13.81856,0.5593 z"
       id="path5960"
       inkscape:connector-curvature="0" />
    <path
       style="opacity:1;fill:#dedee5;fill-opacity:1;stroke:#000000;stroke-width:1;stroke-linecap:round;stroke-linejoin:miter;stroke-miterlimit:4;stroke-dasharray:none;stroke-opacity:1"
       d="m 780.09523,567.70022 c -19.00569,-4.88736 -34.64874,-19.89195 -40.5453,-38.89047 -1.48014,-4.76896 -1.73909,-7.18967 -1.72134,-16.09172 0.0195,-9.78861 0.17394,-10.90995 2.34619,-17.03567 3.32674,-9.38136 6.44649,-14.22879 14.09867,-21.90639 7.44376,-7.46849 14.12491,-11.50321 24.32488,-14.68973 7.54082,-2.35578 23.19516,-2.50574 30.68652,-0.29395 20.86815,6.16122 35.30684,20.97447 40.50241,41.55312 1.35796,5.37859 1.5381,7.70257 1.18935,15.34326 -0.44539,9.75763 -1.71764,14.89215 -5.56938,22.47672 -7.49638,14.76132 -20.97914,25.48447 -37.17767,29.56822 -7.90532,1.993 -20.31154,1.97827 -28.13433,-0.0334 z m 11.03036,-6.35433 c 3.44116,-2.41028 2.87813,-9.91554 -1.09836,-14.64134 -5.30493,-6.30455 -16.26888,-5.7933 -19.96582,0.93101 -1.82883,3.32644 -1.183,6.12253 2.13749,9.25415 4.90853,4.62935 15.21501,7.05594 18.92669,4.45618 z m 29.17032,-5.51113 c 7.24839,-4.68486 9.91631,-9.41212 7.67521,-13.59964 -1.8957,-3.54215 -11.06401,-5.71885 -15.18032,-3.60405 -4.826,2.47941 -7.99666,7.20625 -7.99666,11.92146 0,2.53417 0.46838,3.57419 2.54474,5.65055 3.60214,3.60215 6.96172,3.50664 12.95703,-0.36832 z m -58.73815,-17.1016 c 2.77746,-2.64176 4.62909,-7.70956 4.07174,-11.14411 -0.92435,-5.69611 -6.59254,-11.49409 -11.24275,-11.50019 -1.17273,-0.002 -3.23108,0.51864 -4.57412,1.15595 -4.9173,2.33342 -5.41408,7.64911 -1.47937,15.82973 4.07948,8.48159 8.3399,10.30458 13.2245,5.65862 z m 77.43625,-9.54793 c 3.70786,-2.59709 5.84862,-16.04649 3.30978,-20.79383 -4.6224,-8.64336 -19.54733,1.14446 -17.57034,11.52269 1.54587,8.11504 8.99602,12.95856 14.26056,9.27114 z m -40.66334,-6.64663 c 3.83714,-1.60326 5.71502,-4.51902 5.71502,-8.87367 0,-3.21099 -0.33791,-4.05408 -2.48571,-6.20188 -3.0822,-3.0822 -6.73693,-3.89696 -10.47482,-2.33517 -7.31756,3.05747 -7.51668,14.2 -0.30975,17.33306 3.08289,1.34022 4.49871,1.35477 7.55526,0.0777 z m -35.08506,-20.98939 c 3.96901,-3.02732 5.61725,-6.11891 5.61725,-10.53628 0,-6.65003 -4.7201,-11.53671 -10.15804,-10.51654 -4.64534,0.87147 -10.79302,10.53813 -10.79302,16.97101 0,2.97014 0.33181,3.80284 2.05824,5.16532 2.99055,2.36011 9.45218,1.83273 13.27557,-1.08351 z m 67.01088,-7.55022 c 4.18001,-2.16157 4.98273,-7.15285 1.88378,-11.71336 -2.70221,-3.97666 -10.35134,-8.86132 -13.87637,-8.86132 -4.33695,0 -6.14699,1.91671 -6.5645,6.95138 -0.19185,2.31344 -0.1401,5.03787 0.115,6.05427 0.65273,2.60068 4.08838,6.47037 6.78899,7.64668 3.08597,1.34416 8.97955,1.30489 11.6531,-0.0777 z m -35.05253,-12.1037 c 3.55755,-2.08345 5.28427,-4.87265 5.23482,-8.45589 -0.0798,-5.77962 -3.03574,-8.24806 -9.87711,-8.24806 -9.25708,0 -14.95715,2.74455 -14.95715,7.20178 0,9.02248 11.17084,14.43831 19.59944,9.50217 z"
       id="path5962"
       inkscape:connector-curvature="0" />
    <path
       style="opacity:1;fill:#b4b3b0;fill-opacity:1;stroke:#000000;stroke-width:1;stroke-linecap:round;stroke-linejoin:miter;stroke-miterlimit:4;stroke-dasharray:none;stroke-opacity:1"
       d="m 242.85506,526.06082 c -2.95445,-1.45603 -4.63897,-4.41234 -4.63897,-8.1413 0,-2.10859 0.58039,-3.31199 2.54474,-5.27633 2.15387,-2.15387 3.07174,-2.54474 5.9758,-2.54474 9.13887,0 11.97724,12.17492 3.74869,16.07962 -3.01732,1.43181 -4.53436,1.4085 -7.63026,-0.11725 z"
       id="path5964"
       inkscape:connector-curvature="0" />
    <path
       style="opacity:1;fill:#b4b3b0;fill-opacity:1;stroke:#000000;stroke-width:1;stroke-linecap:round;stroke-linejoin:miter;stroke-miterlimit:4;stroke-dasharray:none;stroke-opacity:1"
       d="m 791.69623,521.77242 c -3.74486,-1.65303 -5.23916,-3.91528 -5.23916,-7.93171 0,-4.10146 1.52053,-6.31935 5.48122,-7.99504 3.6998,-1.56533 8.48647,0.12059 10.30012,3.62781 2.32666,4.49926 0.54033,10.11329 -3.88634,12.21388 -2.87442,1.364 -3.73356,1.37498 -6.65584,0.0851 z"
       id="path5966"
       inkscape:connector-curvature="0" />
    <path
       style="opacity:1;fill:#30302d;fill-opacity:1;stroke:#000000;stroke-width:1;stroke-linecap:round;stroke-linejoin:miter;stroke-miterlimit:4;stroke-dasharray:none;stroke-opacity:1"
       d="m 503.54227,142.47407 c -9.87956,-0.37598 -23.7727,-0.53977 -30.87364,-0.36398 l -12.91079,0.31961 0.003,-3.83993 c 0.004,-6.16839 1.43093,-20.56513 2.66702,-26.9105 2.26997,-11.65263 6.89486,-17.988921 15.72825,-21.548375 3.93387,-1.585165 5.60336,-1.785064 14.90828,-1.785064 18.9743,0 24.86428,3.849111 29.29427,19.143869 1.79296,6.19029 4.99808,29.17463 4.61698,33.10905 -0.28151,2.90636 0.9886,2.80471 -23.43293,1.87532 z"
       id="path5968"
       inkscape:connector-curvature="0" />
    <path
       style="opacity:0.98999999;fill:#1a1a1a;fill-opacity:1;stroke:#000000;stroke-width:0.09711163;stroke-linecap:round;stroke-linejoin:miter;stroke-miterlimit:4;stroke-dasharray:none;stroke-opacity:0.98823529"
       d="m 952.03056,430.3513 c -2.55155,-12.62717 -4.32672,-18.98292 -7.13173,-25.53419 -1.31441,-3.06989 -1.45321,-2.89634 2.23546,-2.79502 2.23467,0.0614 2.64472,0.12475 3.55514,0.54942 1.32988,0.62032 1.99473,1.30034 2.62748,2.68745 1.71264,3.75443 5.80155,20.15092 5.51418,22.11183 -0.23582,1.60919 -1.62278,3.01679 -4.11873,4.18 -2.39397,1.11569 -2.19609,1.20419 -2.6818,-1.19949 z"
       id="path5006"
       inkscape:connector-curvature="0" />
    <path
       style="display:inline;opacity:1;fill:#b4b3b0;fill-opacity:1;stroke:#000000;stroke-width:1;stroke-linecap:round;stroke-linejoin:miter;stroke-miterlimit:4;stroke-dasharray:none;stroke-opacity:1"
       d="m 477.75309,524.31149 c -17.56829,-1.50908 -36.3055,-6.12885 -49.40454,-12.18098 -43.11766,-19.92158 -73.57321,-72.36926 -96.52403,-166.22457 -3.9599,-16.19364 -8.07767,-34.87349 -7.74469,-35.13297 0.18714,-0.14584 182.17756,1.7729 330.68212,3.48641 l 18.33707,0.21158 1.25977,10.09726 c 4.12582,33.06936 4.57306,78.74695 1.29614,132.37959 -1.50855,24.69025 -5.13665,36.21445 -14.60949,46.40516 -9.97806,10.73423 -24.84676,16.2598 -51.83635,19.26366 -17.0333,1.89575 -114.48945,3.15225 -131.456,1.69486 z M 628.20881,351.97281 c 1.46055,-2.22909 0.7926,-5.40703 -1.38097,-6.57029 -2.24208,-1.19992 -243.74546,-3.99275 -247.67602,-2.8642 -1.96349,0.56375 -2.93187,1.33146 -3.24295,2.57091 -0.74742,2.97795 -0.0434,5.22722 1.9259,6.15332 1.7729,0.83373 103.51021,1.96023 214.22709,2.37205 l 34.97286,0.13008 1.17409,-1.79187 z"
       id="path5942"
       inkscape:connector-curvature="0" />
  </g>
  <g
     inkscape:label="Layer 1"
     inkscape:groupmode="layer"
     id="layer1"
     transform="translate(0,-308.26772)"
     style="display:inline;opacity:0.95999995">
    <path
       style="display:inline;fill:none;fill-rule:evenodd;stroke:#000000;stroke-width:1;stroke-linecap:butt;stroke-linejoin:miter;stroke-miterlimit:4;stroke-dasharray:none;stroke-opacity:1"
       d="m 181.18869,595.72186 c 26.492,-0.70063 58.42346,-1.17879 68.25,-6.5 4.92931,-2.66929 21.6602,-24.98245 30.23967,-39.51301 8.57946,-14.53055 21.8461,-33.99402 24.57283,-50.48699 1.56624,-9.4736 1.7601,-19.11067 -1.5625,-21.25"
       id="path5381"
       inkscape:connector-curvature="0"
       sodipodi:nodetypes="csssc" />
    <path
       style="display:inline;fill:none;fill-rule:evenodd;stroke:#000000;stroke-width:1;stroke-linecap:butt;stroke-linejoin:miter;stroke-miterlimit:4;stroke-dasharray:none;stroke-opacity:1"
       d="m 215.67948,551.66349 63.46283,-0.17678"
       id="path5386"
       inkscape:path-effect="#path-effect5388-7"
       inkscape:original-d="m 215.67948,551.66349 63.46283,-0.17678"
       inkscape:connector-curvature="0" />
    <path
       style="display:inline;fill:none;fill-rule:evenodd;stroke:#000000;stroke-width:1;stroke-linecap:butt;stroke-linejoin:miter;stroke-miterlimit:4;stroke-dasharray:none;stroke-opacity:1"
       d="m 223.03088,551.65276 c 3.69717,0.25459 7.93024,-0.91393 11.65838,-4.18382 3.72814,-3.26989 16.75168,-19.2171 25.71472,-27.62526 5.35353,-4.94423 12.01445,-10.68417 18.33908,-14.66996 6.32463,-3.98579 13.55825,-7.11064 15.17343,-12.37687 1.61518,-5.26623 0.38804,-7.95861 -1.86948,-10.25305"
       id="path5390"
       inkscape:connector-curvature="0"
       sodipodi:nodetypes="czczzc" />
    <path
       style="display:inline;fill:none;fill-rule:evenodd;stroke:#000000;stroke-width:1;stroke-linecap:butt;stroke-linejoin:miter;stroke-miterlimit:4;stroke-dasharray:none;stroke-opacity:1"
       d="m 238.81369,543.22186 c -6.37769,6.75401 0.65165,5.72252 7.75236,5.63947 5.44181,-0.0636 11.43551,0.26302 13.87264,-0.76447 5.61721,-2.36821 13.19856,-13.61546 20.1875,-24.25 6.98894,-10.63454 20.96264,-33.43784 2.8125,-21.5"
       id="path5395"
       inkscape:connector-curvature="0"
       sodipodi:nodetypes="csszc" />
    <path
       style="display:inline;fill:none;fill-rule:evenodd;stroke:#000000;stroke-width:1;stroke-linecap:butt;stroke-linejoin:miter;stroke-miterlimit:4;stroke-dasharray:none;stroke-opacity:1"
       d="m 246.26185,630.68267 c 18.06411,-2.43353 31.146,18.61487 22.98097,35.35534 -8.16503,16.74046 -30.48951,17.55711 -40.48187,3.18198 -9.99236,-14.37512 -0.56321,-36.10378 17.5009,-38.53732 z"
       id="path5400"
       inkscape:connector-curvature="0"
       sodipodi:nodetypes="zzzz" />
    <path
       style="display:inline;fill:none;fill-rule:evenodd;stroke:#000000;stroke-width:1;stroke-linecap:butt;stroke-linejoin:miter;stroke-miterlimit:4;stroke-dasharray:none;stroke-opacity:1"
       d="m 199.55611,595.11268 c -53.29247,96.36777 -90.77,222.60941 -50.55806,261.13821"
       id="path5405"
       inkscape:connector-curvature="0"
       sodipodi:nodetypes="cc" />
    <path
       style="display:inline;fill:none;fill-rule:evenodd;stroke:#000000;stroke-width:1;stroke-linecap:butt;stroke-linejoin:miter;stroke-miterlimit:4;stroke-dasharray:none;stroke-opacity:1"
       d="m 323.72367,618.46255 539.9986,5.8151"
       id="path5410"
       inkscape:path-effect="#path-effect5412-7"
       inkscape:original-d="m 323.72367,618.46255 539.9986,5.8151"
       inkscape:connector-curvature="0"
       sodipodi:nodetypes="cc" />
    <path
       style="fill:none;fill-rule:evenodd;stroke:#000000;stroke-width:1;stroke-linecap:butt;stroke-linejoin:miter;stroke-miterlimit:4;stroke-dasharray:none;stroke-opacity:1"
       d="m 323.76012,618.90044 c -8.44046,-88.1535 8.83336,-140.20615 150,-140 129.07672,1.30526 169.8216,24.14054 200,143.57142 6.87469,45.25377 5.36008,90.66422 2.60196,144.97763 -3.03963,59.85705 -32.96251,66.5665 -136.88768,65.73666 -103.60608,3.13542 -170.48339,4.76111 -215.71428,-214.28571 z"
       id="path4730"
       inkscape:connector-curvature="0"
       sodipodi:nodetypes="cccscc" />
    <path
       style="display:inline;opacity:0.98999999;fill:none;fill-rule:evenodd;stroke:#000000;stroke-width:1;stroke-linecap:butt;stroke-linejoin:miter;stroke-miterlimit:4;stroke-dasharray:none;stroke-opacity:1"
       d="m 159.39136,616.0204 c 22.77514,-7.42973 74.93055,-110.73891 142.94008,-137.79401 68.00953,-27.0551 133.50565,-27.17656 182.30453,-27.16291 67.25539,0.0188 118.61534,6.08416 161.98118,20.02005 43.36584,13.93589 131.5299,70.08829 216.82952,153.19898 l 11.6037,-0.0242 c 35.6297,25.20201 68.007,77.14788 73.7096,100.3967 5.7027,23.24882 16.457,79.1497 6.4874,102.52398 -9.9696,23.37429 -67.2231,32.80461 -75.7731,30.33316 11.8521,-15.34729 11.7556,-59.69842 -6.7896,-92.51422 -14.2592,-25.23173 -39.1613,-41.30821 -78.48919,-41.5886 -36.56783,-0.26072 -73.10843,24.09547 -87.3614,58.76828 -15.92545,38.74143 -10.90907,86.991 -10.90907,86.991 l -353.59357,-0.22789 c 0.83144,-30.65895 -1.81907,-67.23858 -17.70321,-96.03318 -16.47066,-29.85782 -46.94784,-50.44414 -91.83251,-49.1811 -32.81728,0.92347 -67.20751,25.83321 -75.60876,56.03524 -9.33741,33.56746 -5.67084,55.99874 1.57305,79.89333 -7.31155,1.05525 -20.89483,-11.52594 -28.09468,-20.04574 -11.22034,-13.27735 -16.40217,-34.12018 -12.61961,-82.8114 10.50073,-7.3307 9.33777,-22.74682 21.11598,-61.09964 11.77821,-38.35281 12.27737,-44.5485 9.43243,-57.61416 z"
       id="path5376"
       inkscape:connector-curvature="0"
       sodipodi:nodetypes="czszcczzcsssccssscsczcc" />
    <path
       style="fill:none;fill-rule:evenodd;stroke:#000000;stroke-width:1;stroke-linecap:butt;stroke-linejoin:miter;stroke-miterlimit:4;stroke-dasharray:none;stroke-opacity:1"
       d="m 458.70519,450.78039 c 1.98988,-23.87225 0.39639,-43.59703 15.66358,-51.53669 7.30905,-3.80105 13.18744,-4.14158 19.38151,-4.12711 6.74414,0.0158 13.22338,0.88334 19.25569,4.2325 11.5726,6.42515 12.99744,28.54924 15.1599,52.5759"
       id="path5487"
       inkscape:connector-curvature="0"
       sodipodi:nodetypes="csssc" />
    <path
       style="display:inline;fill:none;fill-rule:evenodd;stroke:#000000;stroke-width:1;stroke-linecap:butt;stroke-linejoin:miter;stroke-miterlimit:4;stroke-dasharray:none;stroke-opacity:1"
       d="m 305.48038,487.79778 c 49.53798,-22.95006 123.82614,-31.48911 192.35816,-30.43327 50.04957,0.77109 96.8703,6.37744 127.43197,21.85687 72.40924,36.67514 117.00347,76.40112 184.20131,144.24978 67.19784,67.84866 126.62494,171.85945 96.58254,231.35872"
       id="path5492"
       inkscape:connector-curvature="0"
       sodipodi:nodetypes="csszc" />
    <path
       style="fill:none;fill-rule:evenodd;stroke:#000000;stroke-width:1;stroke-linecap:butt;stroke-linejoin:miter;stroke-miterlimit:4;stroke-dasharray:none;stroke-opacity:1"
       d="m 673.13889,791.05895 30.68652,-0.0936"
       id="path5512"
       inkscape:path-effect="#path-effect5514"
       inkscape:original-d="m 673.13889,791.05895 30.68652,-0.0936"
       inkscape:connector-curvature="0" />
    <path
       style="fill:none;fill-rule:evenodd;stroke:#000000;stroke-width:1;stroke-linecap:butt;stroke-linejoin:miter;stroke-miterlimit:4;stroke-dasharray:none;stroke-opacity:1"
       d="m 625.82084,479.72952 c 6.69341,-3.48768 13.39002,-6.96735 20.77249,-8.73238"
       id="path5516"
       inkscape:connector-curvature="0"
       sodipodi:nodetypes="cc" />
    <path
       style="fill:none;fill-rule:evenodd;stroke:#000000;stroke-width:1;stroke-linecap:butt;stroke-linejoin:miter;stroke-miterlimit:4;stroke-dasharray:none;stroke-opacity:1"
       d="m 387.66492,615.21378 246.8883,2.11694 c -1.86907,-38.45264 -9.85109,-72.68301 -38.63418,-98.96702 -28.78309,-26.28401 -156.49972,-31.72794 -188.93703,-9.79085 -32.43731,21.93709 -21.33646,72.70127 -19.31709,106.64093 z"
       id="path5521"
       inkscape:connector-curvature="0"
       sodipodi:nodetypes="cczzc" />
    <path
       style="display:inline;fill:none;fill-rule:evenodd;stroke:#000000;stroke-width:1;stroke-linecap:butt;stroke-linejoin:miter;stroke-miterlimit:4;stroke-dasharray:none;stroke-opacity:1"
       d="m 417.07682,612.0548 193.15412,2.78954 c -1.52839,-31.44364 -6.20316,-58.37617 -29.73978,-79.86923 -23.53663,-21.49308 -123.47508,-27.2678 -149.99985,-9.32931 -26.52476,17.93849 -15.33173,58.53581 -13.41449,86.409 z"
       id="path5521-6"
       inkscape:connector-curvature="0"
       sodipodi:nodetypes="cczzc" />
    <path
       style="fill:none;fill-rule:evenodd;stroke:#000000;stroke-width:1;stroke-linecap:butt;stroke-linejoin:miter;stroke-miterlimit:4;stroke-dasharray:none;stroke-opacity:1"
       d="m 784.59145,623.41693 c 24.22395,33.43722 66.93472,101.48953 55.3051,110.08096"
       id="path5543"
       inkscape:connector-curvature="0"
       sodipodi:nodetypes="cc" />
    <ellipse
       style="display:inline;opacity:1;fill:none;fill-opacity:0.93333333;stroke:#000000;stroke-width:1;stroke-linecap:round;stroke-linejoin:miter;stroke-miterlimit:4;stroke-dasharray:none;stroke-opacity:1"
       id="path5582"
       ry="84.191696"
       rx="82.320564"
       cy="821.09052"
       cx="794.10736" />
    <path
       style="opacity:1;fill:none;fill-opacity:0.93333333;stroke:#000000;stroke-width:1;stroke-linecap:round;stroke-linejoin:miter;stroke-miterlimit:4;stroke-dasharray:none;stroke-opacity:1"
       id="path5601"
       sodipodi:type="arc"
       sodipodi:cx="794.38763"
       sodipodi:cy="821.48468"
       sodipodi:rx="57.478252"
       sodipodi:ry="56.76889"
       sodipodi:start="0"
       sodipodi:end="6.2808278"
       sodipodi:open="true"
       d="m 851.86589,821.48468 a 57.478252,56.76889 0 0 1 -57.44438,56.76888 57.478252,56.76889 0 0 1 -57.51209,-56.70196 57.478252,56.76889 0 0 1 57.37659,-56.83572 57.478252,56.76889 0 0 1 57.57972,56.63497" />
    <path
       style="fill:none;fill-rule:evenodd;stroke:#000000;stroke-width:1;stroke-linecap:butt;stroke-linejoin:miter;stroke-miterlimit:4;stroke-dasharray:none;stroke-opacity:1"
       d="m 751.85086,795.47666 c -5.44523,9.00844 -4.9522,14.29718 -0.0587,16.17103 4.89351,1.87384 11.61738,-0.97991 14.61542,-5.1534 2.99804,-4.17348 3.61463,-10.82508 -0.34212,-14.61541 -3.95674,-3.79033 -8.76937,-5.41066 -14.2146,3.59778 z"
       id="path5603"
       inkscape:connector-curvature="0"
       sodipodi:nodetypes="zzzzz" />
    <path
       style="display:inline;fill:none;fill-rule:evenodd;stroke:#000000;stroke-width:1;stroke-linecap:butt;stroke-linejoin:miter;stroke-miterlimit:4;stroke-dasharray:none;stroke-opacity:1"
       d="m 789.74551,773.69855 c -9.97189,0.60227 -14.69482,3.15608 -13.97569,8.13547 0.71913,4.97939 6.48189,10.25528 11.84293,9.99565 5.36104,-0.25963 11.42017,-3.12689 12.43121,-7.69365 1.01104,-4.56676 -0.32656,-11.03974 -10.29845,-10.43747 z"
       id="path5603-2"
       inkscape:connector-curvature="0"
       sodipodi:nodetypes="zzzzz" />
    <path
       style="display:inline;fill:none;fill-rule:evenodd;stroke:#000000;stroke-width:1;stroke-linecap:butt;stroke-linejoin:miter;stroke-miterlimit:4;stroke-dasharray:none;stroke-opacity:1"
       d="m 828.82416,787.48605 c -7.96098,-6.8866 -13.25711,-7.29264 -15.92947,-2.78529 -2.67234,4.50736 -1.15621,12.02291 2.61451,15.27522 3.77072,3.25231 10.38478,4.57754 14.46373,2.12784 4.07895,-2.4497 6.8122,-7.73116 -1.14877,-14.61777 z"
       id="path5603-28"
       inkscape:connector-curvature="0"
       sodipodi:nodetypes="zzzzz" />
    <path
       style="display:inline;fill:none;fill-rule:evenodd;stroke:#000000;stroke-width:1;stroke-linecap:butt;stroke-linejoin:miter;stroke-miterlimit:4;stroke-dasharray:none;stroke-opacity:1"
       d="m 842.73859,828.54611 c 1.50074,-10.41874 -1.01587,-15.0964 -6.25269,-14.91341 -5.23681,0.18302 -10.74544,5.51567 -11.44825,10.44536 -0.7028,4.9297 1.75131,11.21296 6.01506,13.32465 4.26376,2.11169 10.18512,1.56215 11.68588,-8.8566 z"
       id="path5603-28-0"
       inkscape:connector-curvature="0"
       sodipodi:nodetypes="zzzzz" />
    <path
       style="display:inline;fill:none;fill-rule:evenodd;stroke:#000000;stroke-width:1;stroke-linecap:butt;stroke-linejoin:miter;stroke-miterlimit:4;stroke-dasharray:none;stroke-opacity:1"
       d="m 819.22047,864.45801 c 8.39398,-5.41686 11.25666,-9.95922 8.18721,-13.94544 -3.06945,-3.98622 -10.67935,-5.75649 -15.22356,-2.90022 -4.54421,2.85628 -8.41747,8.3273 -7.05811,12.80275 1.35936,4.47544 5.70047,9.45976 14.09446,4.04291 z"
       id="path5603-2-6"
       inkscape:connector-curvature="0"
       sodipodi:nodetypes="zzzzz" />
    <path
       style="display:inline;fill:none;fill-rule:evenodd;stroke:#000000;stroke-width:1;stroke-linecap:butt;stroke-linejoin:miter;stroke-miterlimit:4;stroke-dasharray:none;stroke-opacity:1"
       d="m 746.99829,837.65014 c 3.58685,9.32393 7.44822,13.0546 11.97765,10.86469 4.52944,-2.1899 7.81773,-9.27732 5.95056,-14.3094 -1.86719,-5.03207 -6.43105,-9.9418 -11.08986,-9.52587 -4.65881,0.41592 -10.42519,3.64664 -6.83835,12.97058 z"
       id="path5603-2-6-8"
       inkscape:connector-curvature="0"
       sodipodi:nodetypes="zzzzz" />
    <path
       style="display:inline;fill:none;fill-rule:evenodd;stroke:#000000;stroke-width:1;stroke-linecap:butt;stroke-linejoin:miter;stroke-miterlimit:4;stroke-dasharray:none;stroke-opacity:1"
       d="m 776.76254,867.76171 c 9.5031,4.52697 14.71708,3.51295 16.09746,-1.54198 1.38035,-5.05493 -2.07592,-11.89864 -6.57452,-14.03366 -4.49863,-2.13501 -11.22722,-1.65747 -14.50981,1.78686 -3.28259,3.44435 -4.51623,9.26179 4.98687,13.78878 z"
       id="path5603-28-0-2"
       inkscape:connector-curvature="0"
       sodipodi:nodetypes="zzzzz" />
    <path
       style="fill:none;fill-rule:evenodd;stroke:#000000;stroke-width:1;stroke-linecap:butt;stroke-linejoin:miter;stroke-miterlimit:4;stroke-dasharray:none;stroke-opacity:1"
       d="m 879.42225,857.51128 c -2.24469,-0.47898 -5.84935,-3.56609 -7.91356,-6.428"
       id="path5698"
       inkscape:connector-curvature="0"
       sodipodi:nodetypes="cc" />
    <path
       style="fill:none;fill-rule:evenodd;stroke:#000000;stroke-width:1;stroke-linecap:butt;stroke-linejoin:miter;stroke-miterlimit:4;stroke-dasharray:none;stroke-opacity:1"
       d="m 695.28298,854.69279 23.28636,-0.13231"
       id="path5703"
       inkscape:path-effect="#path-effect5705"
       inkscape:original-d="m 695.28298,854.69279 23.28636,-0.13231"
       inkscape:connector-curvature="0" />
    <ellipse
       style="display:inline;opacity:1;fill:none;fill-opacity:0.93333333;stroke:#000000;stroke-width:1;stroke-linecap:round;stroke-linejoin:miter;stroke-miterlimit:4;stroke-dasharray:none;stroke-opacity:1"
       id="path5582-0"
       ry="84.191696"
       rx="82.320564"
       cy="825.0556"
       cx="245.82982" />
    <path
       style="display:inline;opacity:1;fill:none;fill-opacity:0.93333333;stroke:#000000;stroke-width:1;stroke-linecap:round;stroke-linejoin:miter;stroke-miterlimit:4;stroke-dasharray:none;stroke-opacity:1"
       id="path5601-5"
       sodipodi:type="arc"
       sodipodi:cx="246.11009"
       sodipodi:cy="825.44977"
       sodipodi:rx="57.478252"
       sodipodi:ry="56.76889"
       sodipodi:start="0"
       sodipodi:end="6.2808278"
       sodipodi:open="true"
       d="m 303.58834,825.44977 a 57.478252,56.76889 0 0 1 -57.44437,56.76888 57.478252,56.76889 0 0 1 -57.51209,-56.70197 57.478252,56.76889 0 0 1 57.37658,-56.83571 57.478252,56.76889 0 0 1 57.57972,56.63497" />
    <path
       style="display:inline;fill:none;fill-rule:evenodd;stroke:#000000;stroke-width:1;stroke-linecap:butt;stroke-linejoin:miter;stroke-miterlimit:4;stroke-dasharray:none;stroke-opacity:1"
       d="m 203.57333,799.44175 c -5.44523,9.00844 -4.9522,14.29718 -0.0587,16.17103 4.89351,1.87384 11.61738,-0.97991 14.61542,-5.1534 2.99804,-4.17348 3.61463,-10.82508 -0.34212,-14.61541 -3.95674,-3.79033 -8.76937,-5.41066 -14.2146,3.59778 z"
       id="path5603-4"
       inkscape:connector-curvature="0"
       sodipodi:nodetypes="zzzzz" />
    <path
       style="display:inline;fill:none;fill-rule:evenodd;stroke:#000000;stroke-width:1;stroke-linecap:butt;stroke-linejoin:miter;stroke-miterlimit:4;stroke-dasharray:none;stroke-opacity:1"
       d="m 241.46798,777.66364 c -9.97189,0.60227 -14.69482,3.15608 -13.97569,8.13547 0.71913,4.97939 6.48189,10.25528 11.84293,9.99565 5.36104,-0.25963 11.42017,-3.12689 12.43121,-7.69365 1.01104,-4.56676 -0.32656,-11.03974 -10.29845,-10.43747 z"
       id="path5603-2-2"
       inkscape:connector-curvature="0"
       sodipodi:nodetypes="zzzzz" />
    <path
       style="display:inline;fill:none;fill-rule:evenodd;stroke:#000000;stroke-width:1;stroke-linecap:butt;stroke-linejoin:miter;stroke-miterlimit:4;stroke-dasharray:none;stroke-opacity:1"
       d="m 280.54663,791.45114 c -7.96098,-6.8866 -13.25711,-7.29264 -15.92947,-2.78529 -2.67234,4.50736 -1.15621,12.02291 2.61451,15.27522 3.77072,3.25231 10.38478,4.57754 14.46373,2.12784 4.07895,-2.4497 6.8122,-7.73116 -1.14877,-14.61777 z"
       id="path5603-28-3"
       inkscape:connector-curvature="0"
       sodipodi:nodetypes="zzzzz" />
    <path
       style="display:inline;fill:none;fill-rule:evenodd;stroke:#000000;stroke-width:1;stroke-linecap:butt;stroke-linejoin:miter;stroke-miterlimit:4;stroke-dasharray:none;stroke-opacity:1"
       d="m 294.46106,832.5112 c 1.50074,-10.41874 -1.01587,-15.0964 -6.25269,-14.91341 -5.23681,0.18302 -10.74544,5.51567 -11.44825,10.44536 -0.7028,4.9297 1.75131,11.21296 6.01506,13.32465 4.26376,2.11169 10.18512,1.56215 11.68588,-8.8566 z"
       id="path5603-28-0-7"
       inkscape:connector-curvature="0"
       sodipodi:nodetypes="zzzzz" />
    <path
       style="display:inline;fill:none;fill-rule:evenodd;stroke:#000000;stroke-width:1;stroke-linecap:butt;stroke-linejoin:miter;stroke-miterlimit:4;stroke-dasharray:none;stroke-opacity:1"
       d="m 270.94294,868.4231 c 8.39398,-5.41686 11.25666,-9.95922 8.18721,-13.94544 -3.06945,-3.98622 -10.67935,-5.75649 -15.22356,-2.90022 -4.54421,2.85628 -8.41747,8.3273 -7.05811,12.80275 1.35936,4.47544 5.70047,9.45973 14.09446,4.04291 z"
       id="path5603-2-6-4"
       inkscape:connector-curvature="0"
       sodipodi:nodetypes="zzzzz" />
    <path
       style="display:inline;fill:none;fill-rule:evenodd;stroke:#000000;stroke-width:1;stroke-linecap:butt;stroke-linejoin:miter;stroke-miterlimit:4;stroke-dasharray:none;stroke-opacity:1"
       d="m 198.72076,841.61523 c 3.58685,9.32393 7.44822,13.0546 11.97765,10.86469 4.52944,-2.1899 7.81773,-9.27732 5.95056,-14.3094 -1.86719,-5.03207 -6.43105,-9.9418 -11.08986,-9.52587 -4.65881,0.41592 -10.42519,3.64664 -6.83835,12.97058 z"
       id="path5603-2-6-8-4"
       inkscape:connector-curvature="0"
       sodipodi:nodetypes="zzzzz" />
    <path
       style="display:inline;fill:none;fill-rule:evenodd;stroke:#000000;stroke-width:1;stroke-linecap:butt;stroke-linejoin:miter;stroke-miterlimit:4;stroke-dasharray:none;stroke-opacity:1"
       d="m 228.48501,871.72682 c 9.5031,4.527 14.71708,3.5129 16.09746,-1.542 1.38035,-5.05493 -2.07592,-11.89864 -6.57452,-14.03366 -4.49863,-2.13501 -11.22722,-1.65747 -14.50981,1.78686 -3.28259,3.44435 -4.51623,9.26179 4.98687,13.7888 z"
       id="path5603-28-0-2-0"
       inkscape:connector-curvature="0"
       sodipodi:nodetypes="zzzzz" />
    <path
       style="fill:none;fill-rule:evenodd;stroke:#000000;stroke-width:1;stroke-linecap:butt;stroke-linejoin:miter;stroke-miterlimit:4;stroke-dasharray:none;stroke-opacity:1"
       d="m 342.60384,857.01627 -20.76954,0"
       id="path5746"
       inkscape:path-effect="#path-effect5748"
       inkscape:original-d="m 342.60384,857.01627 -20.76954,0"
       inkscape:connector-curvature="0" />
    <path
       style="fill:none;fill-rule:evenodd;stroke:#000000;stroke-width:1;stroke-linecap:butt;stroke-linejoin:miter;stroke-miterlimit:4;stroke-dasharray:none;stroke-opacity:1"
       d="m 158.48468,858.32606 c 1.74912,-2.2433 4.75033,-3.54754 10.47833,-2.80669"
       id="path5750"
       inkscape:connector-curvature="0"
       sodipodi:nodetypes="cc" />
    <path
       style="display:inline;fill:none;fill-rule:evenodd;stroke:#000000;stroke-width:1;stroke-linecap:butt;stroke-linejoin:miter;stroke-miterlimit:4;stroke-dasharray:none;stroke-opacity:1"
       d="m 385.19542,650.45697 c -3.11904,-0.0284 -9.26232,-0.23497 -9.16853,5.05205 0.0938,5.28702 4.97865,4.16756 8.79431,4.3036 3.81567,0.13604 234.44183,1.80865 238.00769,1.87113 3.56586,0.0625 6.18422,0.0447 6.17473,-4.3036 -0.009,-4.34832 -4.5067,-4.26805 -6.92318,-4.30359 -2.41648,-0.0355 -233.76597,-2.59119 -236.88502,-2.61959 z"
       id="path5563"
       inkscape:connector-curvature="0"
       sodipodi:nodetypes="zzzzzzz" />
    <path
       style="display:inline;fill:none;fill-rule:evenodd;stroke:#000000;stroke-width:1;stroke-linecap:butt;stroke-linejoin:miter;stroke-miterlimit:4;stroke-dasharray:none;stroke-opacity:1"
       d="m 336.90346,573.12553 c 2.01568,-0.37024 13.91887,-2.81359 22.22789,0.26461 8.30901,3.0782 4.39691,33.69992 0.9328,35.9559 -3.46411,2.25598 -17.71245,4.26496 -22.39619,1.42995 -4.68375,-2.83502 -2.78019,-37.28023 -0.7645,-37.65046 z"
       id="path5553"
       inkscape:connector-curvature="0"
       sodipodi:nodetypes="zzzzz" />
    <circle
       style="opacity:1;fill:none;fill-opacity:0.93333333;stroke:#000000;stroke-width:1;stroke-linecap:round;stroke-linejoin:miter;stroke-miterlimit:4;stroke-dasharray:none;stroke-opacity:1"
       id="path5791"
       cx="246.8069"
       cy="826.74347"
       r="9.1293106" />
    <circle
       style="display:inline;opacity:1;fill:none;fill-opacity:0.93333333;stroke:#000000;stroke-width:1;stroke-linecap:round;stroke-linejoin:miter;stroke-miterlimit:4;stroke-dasharray:none;stroke-opacity:1"
       id="path5791-1"
       cx="794.81134"
       cy="822.11273"
       r="9.1293106" />
    <path
       style="fill:none;fill-rule:evenodd;stroke:#000000;stroke-width:1;stroke-linecap:butt;stroke-linejoin:miter;stroke-miterlimit:4;stroke-dasharray:none;stroke-opacity:1"
       d="m 652.22115,473.00447 c -5.42409,2.75597 -11.77551,7.16074 -10.19248,9.76815 1.58302,2.60742 48.25293,29.06425 84.45469,56.30236 36.20176,27.23812 75.55283,64.1802 87.48066,71.37568 11.92783,7.19548 24.42361,3.21622 36.78185,2.11694"
       id="path5808"
       inkscape:connector-curvature="0"
       sodipodi:nodetypes="czzzc" />
    <path
       style="opacity:0.98999999;fill:none;fill-rule:evenodd;stroke:#000000;stroke-width:1;stroke-linecap:butt;stroke-linejoin:miter;stroke-miterlimit:4;stroke-dasharray:none;stroke-opacity:1"
       d="m 943.61067,710.31971 c 0,0 7.50268,-1.55009 9.54276,2.43247 2.04008,3.98256 4.90635,16.72577 5.8005,21.51799 0.89415,4.79222 -6.36184,6.54896 -6.36184,6.54896"
       id="path4329"
       inkscape:connector-curvature="0"
       sodipodi:nodetypes="czzc" />
  </g>
</svg>
